<svg width="32" height="32" viewBox="0 0 32 32" fill="none" xmlns="http://www.w3.org/2000/svg">
  <!-- Simplified sun icon for favicon -->
  <circle cx="16" cy="16" r="6" fill="#F2D42E"/>
  <circle cx="16" cy="16" r="5" fill="#FFFFFF"/>
  <circle cx="16" cy="16" r="4" fill="#24A3CC"/>
  
  <!-- Sun rays -->
  <path d="M16 4 L16 2" stroke="#F2D42E" stroke-width="2" stroke-linecap="round"/>
  <path d="M16 30 L16 28" stroke="#F2D42E" stroke-width="2" stroke-linecap="round"/>
  <path d="M28 16 L30 16" stroke="#F2D42E" stroke-width="2" stroke-linecap="round"/>
  <path d="M2 16 L4 16" stroke="#F2D42E" stroke-width="2" stroke-linecap="round"/>
  <path d="M25 7 L27 5" stroke="#F2D42E" stroke-width="2" stroke-linecap="round"/>
  <path d="M5 27 L7 25" stroke="#F2D42E" stroke-width="2" stroke-linecap="round"/>
  <path d="M25 25 L27 27" stroke="#F2D42E" stroke-width="2" stroke-linecap="round"/>
  <path d="M5 5 L7 7" stroke="#F2D42E" stroke-width="2" stroke-linecap="round"/>
  
  <!-- Children silhouettes -->
  <circle cx="11" cy="20" r="2" fill="#24A3CC"/>
  <path d="M11 22 L9 26 L11 26 L11 24 L11 26 L13 26 L11 22 Z" fill="#24A3CC"/>
  
  <circle cx="21" cy="20" r="2" fill="#CAEEFA"/>
  <path d="M21 22 L19 26 L21 26 L21 24 L21 26 L23 26 L21 22 Z" fill="#CAEEFA"/>
  
  <!-- Arc -->
  <path d="M8 26 Q16 23 24 26" stroke="#24A3CC" stroke-width="2" fill="none" stroke-linecap="round"/>
</svg>
